<svg xmlns="http://www.w3.org/2000/svg" xmlns:xlink="http://www.w3.org/1999/xlink" version="1.1" id="Two_Tone" x="0px" y="0px" viewBox="0 0 24 24" style="enable-background:new 0 0 24 24;" xml:space="preserve" width="24" height="24" fill="000000">
<path d="M12,12.1L1.8,7L12,1.9L22.2,7L12,12.1z M6.2,7L12,9.9L17.8,7L12,4.1L6.2,7z"/>
    <polygon style="opacity:0.3;enable-background:new    ;" points="4,7 12,3 20,7 12,11 "/>
    <polygon points="12,17.1 1.8,12 8.6,8.6 9.4,10.4 6.2,12 12,14.9 17.8,12 14.6,10.4 15.4,8.6 22.2,12 "/>
    <polygon points="12,22.1 1.8,17 8.6,13.6 9.4,15.4 6.2,17 12,19.9 17.8,17 14.6,15.4 15.4,13.6 22.2,17 "/>
    <polygon style="opacity:0.3;enable-background:new    ;" points="15,14.5 20,17 12,21 4,17 9,14.5 12,16 "/>
</svg>